<mxfile host="app.diagrams.net" modified="2022-07-19T05:58:45.114Z" agent="5.0 (Macintosh; Intel Mac OS X 10_15_7) AppleWebKit/537.36 (KHTML, like Gecko) Chrome/103.0.0.0 Safari/537.36" etag="Yw6U-5RCK_bEMKS8XcAv" version="20.1.1" type="github" pages="3">
  <diagram id="CP37AEw8S6FTjB30uwLh" name="use case">
    <mxGraphModel dx="1033" dy="722" grid="1" gridSize="10" guides="1" tooltips="1" connect="1" arrows="1" fold="1" page="1" pageScale="1" pageWidth="850" pageHeight="1100" math="0" shadow="0">
      <root>
        <mxCell id="0" />
        <mxCell id="1" parent="0" />
        <mxCell id="A4pL_6eiTAqxVcAL9mk--1" value="App user" style="shape=umlActor;verticalLabelPosition=bottom;verticalAlign=top;html=1;outlineConnect=0;" parent="1" vertex="1">
          <mxGeometry x="110" y="230" width="30" height="60" as="geometry" />
        </mxCell>
        <mxCell id="A4pL_6eiTAqxVcAL9mk--3" value="" style="rounded=1;whiteSpace=wrap;html=1;" parent="1" vertex="1">
          <mxGeometry x="210" y="40" width="520" height="670" as="geometry" />
        </mxCell>
        <mxCell id="A4pL_6eiTAqxVcAL9mk--4" value="Log in" style="text;html=1;strokeColor=none;fillColor=none;align=center;verticalAlign=middle;whiteSpace=wrap;rounded=0;" parent="1" vertex="1">
          <mxGeometry x="280" y="90" width="60" height="30" as="geometry" />
        </mxCell>
      </root>
    </mxGraphModel>
  </diagram>
  <diagram id="GPykYgcM2B7EEOA7zzDN" name="flow">
    <mxGraphModel dx="2633" dy="2083" grid="1" gridSize="10" guides="1" tooltips="1" connect="1" arrows="1" fold="1" page="1" pageScale="1" pageWidth="850" pageHeight="1100" math="0" shadow="0">
      <root>
        <mxCell id="0" />
        <mxCell id="1" parent="0" />
        <mxCell id="BlhQ42uogTpVjSI5MPA0-1" value="Set up acct" style="rounded=0;whiteSpace=wrap;html=1;" vertex="1" parent="1">
          <mxGeometry x="200" y="-60" width="120" height="60" as="geometry" />
        </mxCell>
        <mxCell id="BlhQ42uogTpVjSI5MPA0-2" value="Log in" style="rounded=0;whiteSpace=wrap;html=1;" vertex="1" parent="1">
          <mxGeometry x="360" y="-60" width="120" height="60" as="geometry" />
        </mxCell>
        <mxCell id="BlhQ42uogTpVjSI5MPA0-7" style="edgeStyle=orthogonalEdgeStyle;rounded=0;orthogonalLoop=1;jettySize=auto;html=1;" edge="1" parent="1" source="BlhQ42uogTpVjSI5MPA0-3" target="BlhQ42uogTpVjSI5MPA0-6">
          <mxGeometry relative="1" as="geometry" />
        </mxCell>
        <mxCell id="BlhQ42uogTpVjSI5MPA0-3" value="Plan my meal" style="rounded=0;whiteSpace=wrap;html=1;fillColor=#dae8fc;strokeColor=#6c8ebf;" vertex="1" parent="1">
          <mxGeometry x="200" y="100" width="120" height="60" as="geometry" />
        </mxCell>
        <mxCell id="BlhQ42uogTpVjSI5MPA0-15" style="edgeStyle=orthogonalEdgeStyle;rounded=0;orthogonalLoop=1;jettySize=auto;html=1;" edge="1" parent="1" source="BlhQ42uogTpVjSI5MPA0-4" target="BlhQ42uogTpVjSI5MPA0-10">
          <mxGeometry relative="1" as="geometry" />
        </mxCell>
        <mxCell id="BlhQ42uogTpVjSI5MPA0-4" value="Search for recipes" style="rounded=0;whiteSpace=wrap;html=1;" vertex="1" parent="1">
          <mxGeometry x="460" y="250" width="120" height="60" as="geometry" />
        </mxCell>
        <mxCell id="BlhQ42uogTpVjSI5MPA0-14" style="edgeStyle=orthogonalEdgeStyle;rounded=0;orthogonalLoop=1;jettySize=auto;html=1;entryX=0;entryY=0.5;entryDx=0;entryDy=0;" edge="1" parent="1" source="BlhQ42uogTpVjSI5MPA0-5" target="BlhQ42uogTpVjSI5MPA0-10">
          <mxGeometry relative="1" as="geometry" />
        </mxCell>
        <mxCell id="BlhQ42uogTpVjSI5MPA0-5" value="Search for and add ingredients" style="rounded=0;whiteSpace=wrap;html=1;" vertex="1" parent="1">
          <mxGeometry x="280" y="250" width="120" height="60" as="geometry" />
        </mxCell>
        <mxCell id="BlhQ42uogTpVjSI5MPA0-8" style="edgeStyle=orthogonalEdgeStyle;rounded=0;orthogonalLoop=1;jettySize=auto;html=1;entryX=0.5;entryY=0;entryDx=0;entryDy=0;exitX=0.5;exitY=1;exitDx=0;exitDy=0;" edge="1" parent="1" source="BlhQ42uogTpVjSI5MPA0-6" target="BlhQ42uogTpVjSI5MPA0-4">
          <mxGeometry relative="1" as="geometry" />
        </mxCell>
        <mxCell id="BlhQ42uogTpVjSI5MPA0-9" style="edgeStyle=orthogonalEdgeStyle;rounded=0;orthogonalLoop=1;jettySize=auto;html=1;entryX=0.5;entryY=0;entryDx=0;entryDy=0;exitX=0.5;exitY=1;exitDx=0;exitDy=0;" edge="1" parent="1" source="BlhQ42uogTpVjSI5MPA0-6" target="BlhQ42uogTpVjSI5MPA0-5">
          <mxGeometry relative="1" as="geometry" />
        </mxCell>
        <mxCell id="BlhQ42uogTpVjSI5MPA0-6" value="" style="rhombus;whiteSpace=wrap;html=1;" vertex="1" parent="1">
          <mxGeometry x="400" y="90" width="80" height="80" as="geometry" />
        </mxCell>
        <mxCell id="BlhQ42uogTpVjSI5MPA0-16" style="edgeStyle=orthogonalEdgeStyle;rounded=0;orthogonalLoop=1;jettySize=auto;html=1;entryX=0;entryY=0.5;entryDx=0;entryDy=0;" edge="1" parent="1" source="BlhQ42uogTpVjSI5MPA0-10" target="BlhQ42uogTpVjSI5MPA0-11">
          <mxGeometry relative="1" as="geometry" />
        </mxCell>
        <mxCell id="BlhQ42uogTpVjSI5MPA0-10" value="See recipes" style="rounded=0;whiteSpace=wrap;html=1;" vertex="1" parent="1">
          <mxGeometry x="365" y="390" width="120" height="60" as="geometry" />
        </mxCell>
        <mxCell id="BlhQ42uogTpVjSI5MPA0-17" style="edgeStyle=orthogonalEdgeStyle;rounded=0;orthogonalLoop=1;jettySize=auto;html=1;entryX=0;entryY=0.5;entryDx=0;entryDy=0;" edge="1" parent="1" source="BlhQ42uogTpVjSI5MPA0-11" target="BlhQ42uogTpVjSI5MPA0-12">
          <mxGeometry relative="1" as="geometry" />
        </mxCell>
        <mxCell id="BlhQ42uogTpVjSI5MPA0-11" value="Assign recipe to schedule" style="rounded=0;whiteSpace=wrap;html=1;" vertex="1" parent="1">
          <mxGeometry x="560" y="390" width="120" height="60" as="geometry" />
        </mxCell>
        <mxCell id="BlhQ42uogTpVjSI5MPA0-18" style="edgeStyle=orthogonalEdgeStyle;rounded=0;orthogonalLoop=1;jettySize=auto;html=1;entryX=0;entryY=0.5;entryDx=0;entryDy=0;" edge="1" parent="1" source="BlhQ42uogTpVjSI5MPA0-12" target="BlhQ42uogTpVjSI5MPA0-13">
          <mxGeometry relative="1" as="geometry" />
        </mxCell>
        <mxCell id="BlhQ42uogTpVjSI5MPA0-12" value="See ingredients summary" style="rounded=0;whiteSpace=wrap;html=1;" vertex="1" parent="1">
          <mxGeometry x="760" y="390" width="120" height="60" as="geometry" />
        </mxCell>
        <mxCell id="BlhQ42uogTpVjSI5MPA0-20" style="edgeStyle=orthogonalEdgeStyle;rounded=0;orthogonalLoop=1;jettySize=auto;html=1;" edge="1" parent="1" source="BlhQ42uogTpVjSI5MPA0-13" target="BlhQ42uogTpVjSI5MPA0-19">
          <mxGeometry relative="1" as="geometry">
            <Array as="points">
              <mxPoint x="1000" y="490" />
              <mxPoint x="420" y="490" />
            </Array>
          </mxGeometry>
        </mxCell>
        <mxCell id="BlhQ42uogTpVjSI5MPA0-13" value="Designate &quot;have it&quot; or &quot;don&#39;t have it&quot;" style="rounded=0;whiteSpace=wrap;html=1;" vertex="1" parent="1">
          <mxGeometry x="940" y="390" width="120" height="60" as="geometry" />
        </mxCell>
        <mxCell id="BlhQ42uogTpVjSI5MPA0-25" style="edgeStyle=orthogonalEdgeStyle;rounded=0;orthogonalLoop=1;jettySize=auto;html=1;entryX=0.5;entryY=0;entryDx=0;entryDy=0;" edge="1" parent="1" source="BlhQ42uogTpVjSI5MPA0-19" target="BlhQ42uogTpVjSI5MPA0-22">
          <mxGeometry relative="1" as="geometry" />
        </mxCell>
        <mxCell id="BlhQ42uogTpVjSI5MPA0-19" value="See grocery list" style="rounded=0;whiteSpace=wrap;html=1;" vertex="1" parent="1">
          <mxGeometry x="360" y="530" width="120" height="60" as="geometry" />
        </mxCell>
        <mxCell id="BlhQ42uogTpVjSI5MPA0-26" style="edgeStyle=orthogonalEdgeStyle;rounded=0;orthogonalLoop=1;jettySize=auto;html=1;" edge="1" parent="1" source="BlhQ42uogTpVjSI5MPA0-22" target="BlhQ42uogTpVjSI5MPA0-23">
          <mxGeometry relative="1" as="geometry" />
        </mxCell>
        <mxCell id="BlhQ42uogTpVjSI5MPA0-27" style="edgeStyle=orthogonalEdgeStyle;rounded=0;orthogonalLoop=1;jettySize=auto;html=1;" edge="1" parent="1" source="BlhQ42uogTpVjSI5MPA0-22" target="BlhQ42uogTpVjSI5MPA0-24">
          <mxGeometry relative="1" as="geometry" />
        </mxCell>
        <mxCell id="BlhQ42uogTpVjSI5MPA0-22" value="" style="rhombus;whiteSpace=wrap;html=1;" vertex="1" parent="1">
          <mxGeometry x="380" y="680" width="80" height="80" as="geometry" />
        </mxCell>
        <mxCell id="BlhQ42uogTpVjSI5MPA0-23" value="Order delivery" style="rounded=0;whiteSpace=wrap;html=1;" vertex="1" parent="1">
          <mxGeometry x="530" y="640" width="120" height="60" as="geometry" />
        </mxCell>
        <mxCell id="BlhQ42uogTpVjSI5MPA0-24" value="Get store coupons" style="rounded=0;whiteSpace=wrap;html=1;" vertex="1" parent="1">
          <mxGeometry x="530" y="750" width="120" height="60" as="geometry" />
        </mxCell>
        <mxCell id="BlhQ42uogTpVjSI5MPA0-28" value="View my meal plan" style="rounded=0;whiteSpace=wrap;html=1;fillColor=#dae8fc;strokeColor=#6c8ebf;" vertex="1" parent="1">
          <mxGeometry x="760" y="100" width="120" height="60" as="geometry" />
        </mxCell>
        <mxCell id="BlhQ42uogTpVjSI5MPA0-29" value="View a recipe" style="rounded=0;whiteSpace=wrap;html=1;fillColor=#dae8fc;strokeColor=#6c8ebf;" vertex="1" parent="1">
          <mxGeometry x="960" y="100" width="120" height="60" as="geometry" />
        </mxCell>
        <mxCell id="BlhQ42uogTpVjSI5MPA0-30" value="View my grocery list" style="rounded=0;whiteSpace=wrap;html=1;fillColor=#dae8fc;strokeColor=#6c8ebf;" vertex="1" parent="1">
          <mxGeometry x="1160" y="100" width="120" height="60" as="geometry" />
        </mxCell>
        <mxCell id="BlhQ42uogTpVjSI5MPA0-31" value="View my pantry items" style="rounded=0;whiteSpace=wrap;html=1;fillColor=#dae8fc;strokeColor=#6c8ebf;" vertex="1" parent="1">
          <mxGeometry x="1360" y="100" width="120" height="60" as="geometry" />
        </mxCell>
        <mxCell id="BlhQ42uogTpVjSI5MPA0-32" value="Create a recipe" style="rounded=0;whiteSpace=wrap;html=1;fillColor=#dae8fc;strokeColor=#6c8ebf;" vertex="1" parent="1">
          <mxGeometry x="1160" y="240" width="120" height="60" as="geometry" />
        </mxCell>
      </root>
    </mxGraphModel>
  </diagram>
  <diagram id="-8r8dCTS_Cn6IR6yrl1K" name="object models">
    <mxGraphModel dx="4333" dy="2083" grid="1" gridSize="10" guides="1" tooltips="1" connect="1" arrows="1" fold="1" page="1" pageScale="1" pageWidth="850" pageHeight="1100" math="0" shadow="0">
      <root>
        <mxCell id="0" />
        <mxCell id="1" parent="0" />
        <mxCell id="4ZPrEF91bSEPj0tcrlBE-1" value="My Schedule/Meal Plan" style="swimlane;fontStyle=1;align=center;verticalAlign=top;childLayout=stackLayout;horizontal=1;startSize=26;horizontalStack=0;resizeParent=1;resizeParentMax=0;resizeLast=0;collapsible=1;marginBottom=0;" vertex="1" parent="1">
          <mxGeometry x="-690" y="-20" width="250" height="94" as="geometry" />
        </mxCell>
        <mxCell id="4ZPrEF91bSEPj0tcrlBE-2" value="+ days (or just meals with dates... better to &#xa;be redundant on firebase)" style="text;strokeColor=none;fillColor=none;align=left;verticalAlign=top;spacingLeft=4;spacingRight=4;overflow=hidden;rotatable=0;points=[[0,0.5],[1,0.5]];portConstraint=eastwest;" vertex="1" parent="4ZPrEF91bSEPj0tcrlBE-1">
          <mxGeometry y="26" width="250" height="34" as="geometry" />
        </mxCell>
        <mxCell id="4ZPrEF91bSEPj0tcrlBE-3" value="" style="line;strokeWidth=1;fillColor=none;align=left;verticalAlign=middle;spacingTop=-1;spacingLeft=3;spacingRight=3;rotatable=0;labelPosition=right;points=[];portConstraint=eastwest;" vertex="1" parent="4ZPrEF91bSEPj0tcrlBE-1">
          <mxGeometry y="60" width="250" height="8" as="geometry" />
        </mxCell>
        <mxCell id="4ZPrEF91bSEPj0tcrlBE-4" value="+ method(type): type" style="text;strokeColor=none;fillColor=none;align=left;verticalAlign=top;spacingLeft=4;spacingRight=4;overflow=hidden;rotatable=0;points=[[0,0.5],[1,0.5]];portConstraint=eastwest;" vertex="1" parent="4ZPrEF91bSEPj0tcrlBE-1">
          <mxGeometry y="68" width="250" height="26" as="geometry" />
        </mxCell>
        <mxCell id="4ZPrEF91bSEPj0tcrlBE-5" value="Recipe" style="swimlane;fontStyle=1;align=center;verticalAlign=top;childLayout=stackLayout;horizontal=1;startSize=26;horizontalStack=0;resizeParent=1;resizeParentMax=0;resizeLast=0;collapsible=1;marginBottom=0;" vertex="1" parent="1">
          <mxGeometry x="-270" y="-60" width="250" height="180" as="geometry" />
        </mxCell>
        <mxCell id="4ZPrEF91bSEPj0tcrlBE-6" value="+ ...&#xa;+ ingredients []&#xa;+ tags, labels&#xa;+ steps (object....)&#xa;" style="text;strokeColor=none;fillColor=none;align=left;verticalAlign=top;spacingLeft=4;spacingRight=4;overflow=hidden;rotatable=0;points=[[0,0.5],[1,0.5]];portConstraint=eastwest;" vertex="1" parent="4ZPrEF91bSEPj0tcrlBE-5">
          <mxGeometry y="26" width="250" height="104" as="geometry" />
        </mxCell>
        <mxCell id="4ZPrEF91bSEPj0tcrlBE-7" value="" style="line;strokeWidth=1;fillColor=none;align=left;verticalAlign=middle;spacingTop=-1;spacingLeft=3;spacingRight=3;rotatable=0;labelPosition=right;points=[];portConstraint=eastwest;" vertex="1" parent="4ZPrEF91bSEPj0tcrlBE-5">
          <mxGeometry y="130" width="250" height="8" as="geometry" />
        </mxCell>
        <mxCell id="4ZPrEF91bSEPj0tcrlBE-8" value="+ clone&#xa;+ favorite" style="text;strokeColor=none;fillColor=none;align=left;verticalAlign=top;spacingLeft=4;spacingRight=4;overflow=hidden;rotatable=0;points=[[0,0.5],[1,0.5]];portConstraint=eastwest;" vertex="1" parent="4ZPrEF91bSEPj0tcrlBE-5">
          <mxGeometry y="138" width="250" height="42" as="geometry" />
        </mxCell>
        <mxCell id="4ZPrEF91bSEPj0tcrlBE-9" value="My inventory/pantry" style="swimlane;fontStyle=1;align=center;verticalAlign=top;childLayout=stackLayout;horizontal=1;startSize=26;horizontalStack=0;resizeParent=1;resizeParentMax=0;resizeLast=0;collapsible=1;marginBottom=0;" vertex="1" parent="1">
          <mxGeometry x="-480" y="370" width="250" height="86" as="geometry" />
        </mxCell>
        <mxCell id="4ZPrEF91bSEPj0tcrlBE-10" value="+ items" style="text;strokeColor=none;fillColor=none;align=left;verticalAlign=top;spacingLeft=4;spacingRight=4;overflow=hidden;rotatable=0;points=[[0,0.5],[1,0.5]];portConstraint=eastwest;" vertex="1" parent="4ZPrEF91bSEPj0tcrlBE-9">
          <mxGeometry y="26" width="250" height="26" as="geometry" />
        </mxCell>
        <mxCell id="4ZPrEF91bSEPj0tcrlBE-11" value="" style="line;strokeWidth=1;fillColor=none;align=left;verticalAlign=middle;spacingTop=-1;spacingLeft=3;spacingRight=3;rotatable=0;labelPosition=right;points=[];portConstraint=eastwest;" vertex="1" parent="4ZPrEF91bSEPj0tcrlBE-9">
          <mxGeometry y="52" width="250" height="8" as="geometry" />
        </mxCell>
        <mxCell id="4ZPrEF91bSEPj0tcrlBE-12" value="+ method(type): type" style="text;strokeColor=none;fillColor=none;align=left;verticalAlign=top;spacingLeft=4;spacingRight=4;overflow=hidden;rotatable=0;points=[[0,0.5],[1,0.5]];portConstraint=eastwest;" vertex="1" parent="4ZPrEF91bSEPj0tcrlBE-9">
          <mxGeometry y="60" width="250" height="26" as="geometry" />
        </mxCell>
        <mxCell id="4ZPrEF91bSEPj0tcrlBE-13" value="Ingredient" style="swimlane;fontStyle=1;align=center;verticalAlign=top;childLayout=stackLayout;horizontal=1;startSize=26;horizontalStack=0;resizeParent=1;resizeParentMax=0;resizeLast=0;collapsible=1;marginBottom=0;" vertex="1" parent="1">
          <mxGeometry x="-160" y="320" width="250" height="86" as="geometry" />
        </mxCell>
        <mxCell id="4ZPrEF91bSEPj0tcrlBE-14" value="+ field: type" style="text;strokeColor=none;fillColor=none;align=left;verticalAlign=top;spacingLeft=4;spacingRight=4;overflow=hidden;rotatable=0;points=[[0,0.5],[1,0.5]];portConstraint=eastwest;" vertex="1" parent="4ZPrEF91bSEPj0tcrlBE-13">
          <mxGeometry y="26" width="250" height="26" as="geometry" />
        </mxCell>
        <mxCell id="4ZPrEF91bSEPj0tcrlBE-15" value="" style="line;strokeWidth=1;fillColor=none;align=left;verticalAlign=middle;spacingTop=-1;spacingLeft=3;spacingRight=3;rotatable=0;labelPosition=right;points=[];portConstraint=eastwest;" vertex="1" parent="4ZPrEF91bSEPj0tcrlBE-13">
          <mxGeometry y="52" width="250" height="8" as="geometry" />
        </mxCell>
        <mxCell id="4ZPrEF91bSEPj0tcrlBE-16" value="+ method(type): type" style="text;strokeColor=none;fillColor=none;align=left;verticalAlign=top;spacingLeft=4;spacingRight=4;overflow=hidden;rotatable=0;points=[[0,0.5],[1,0.5]];portConstraint=eastwest;" vertex="1" parent="4ZPrEF91bSEPj0tcrlBE-13">
          <mxGeometry y="60" width="250" height="26" as="geometry" />
        </mxCell>
        <mxCell id="4ZPrEF91bSEPj0tcrlBE-17" value="Grocery List" style="swimlane;fontStyle=1;align=center;verticalAlign=top;childLayout=stackLayout;horizontal=1;startSize=26;horizontalStack=0;resizeParent=1;resizeParentMax=0;resizeLast=0;collapsible=1;marginBottom=0;" vertex="1" parent="1">
          <mxGeometry x="240" y="330" width="250" height="86" as="geometry" />
        </mxCell>
        <mxCell id="4ZPrEF91bSEPj0tcrlBE-18" value="+ field: type" style="text;strokeColor=none;fillColor=none;align=left;verticalAlign=top;spacingLeft=4;spacingRight=4;overflow=hidden;rotatable=0;points=[[0,0.5],[1,0.5]];portConstraint=eastwest;" vertex="1" parent="4ZPrEF91bSEPj0tcrlBE-17">
          <mxGeometry y="26" width="250" height="26" as="geometry" />
        </mxCell>
        <mxCell id="4ZPrEF91bSEPj0tcrlBE-19" value="" style="line;strokeWidth=1;fillColor=none;align=left;verticalAlign=middle;spacingTop=-1;spacingLeft=3;spacingRight=3;rotatable=0;labelPosition=right;points=[];portConstraint=eastwest;" vertex="1" parent="4ZPrEF91bSEPj0tcrlBE-17">
          <mxGeometry y="52" width="250" height="8" as="geometry" />
        </mxCell>
        <mxCell id="4ZPrEF91bSEPj0tcrlBE-20" value="+ method(type): type" style="text;strokeColor=none;fillColor=none;align=left;verticalAlign=top;spacingLeft=4;spacingRight=4;overflow=hidden;rotatable=0;points=[[0,0.5],[1,0.5]];portConstraint=eastwest;" vertex="1" parent="4ZPrEF91bSEPj0tcrlBE-17">
          <mxGeometry y="60" width="250" height="26" as="geometry" />
        </mxCell>
        <mxCell id="4ZPrEF91bSEPj0tcrlBE-21" value="Grocery List Item (extends ingredient)" style="swimlane;fontStyle=1;align=center;verticalAlign=top;childLayout=stackLayout;horizontal=1;startSize=26;horizontalStack=0;resizeParent=1;resizeParentMax=0;resizeLast=0;collapsible=1;marginBottom=0;" vertex="1" parent="1">
          <mxGeometry x="160" y="420" width="250" height="242" as="geometry" />
        </mxCell>
        <mxCell id="4ZPrEF91bSEPj0tcrlBE-22" value="+ ...ingredient&#xa;+ qty&#xa;+ checked? bool&#xa;+ has_coupon?&#xa;+ coupon&#xa;+ price" style="text;strokeColor=none;fillColor=none;align=left;verticalAlign=top;spacingLeft=4;spacingRight=4;overflow=hidden;rotatable=0;points=[[0,0.5],[1,0.5]];portConstraint=eastwest;" vertex="1" parent="4ZPrEF91bSEPj0tcrlBE-21">
          <mxGeometry y="26" width="250" height="104" as="geometry" />
        </mxCell>
        <mxCell id="4ZPrEF91bSEPj0tcrlBE-23" value="" style="line;strokeWidth=1;fillColor=none;align=left;verticalAlign=middle;spacingTop=-1;spacingLeft=3;spacingRight=3;rotatable=0;labelPosition=right;points=[];portConstraint=eastwest;" vertex="1" parent="4ZPrEF91bSEPj0tcrlBE-21">
          <mxGeometry y="130" width="250" height="12" as="geometry" />
        </mxCell>
        <mxCell id="4ZPrEF91bSEPj0tcrlBE-24" value="+ method(type): type" style="text;strokeColor=none;fillColor=none;align=left;verticalAlign=top;spacingLeft=4;spacingRight=4;overflow=hidden;rotatable=0;points=[[0,0.5],[1,0.5]];portConstraint=eastwest;" vertex="1" parent="4ZPrEF91bSEPj0tcrlBE-21">
          <mxGeometry y="142" width="250" height="100" as="geometry" />
        </mxCell>
        <mxCell id="4ZPrEF91bSEPj0tcrlBE-25" value="Recipe Step" style="swimlane;fontStyle=1;align=center;verticalAlign=top;childLayout=stackLayout;horizontal=1;startSize=26;horizontalStack=0;resizeParent=1;resizeParentMax=0;resizeLast=0;collapsible=1;marginBottom=0;" vertex="1" parent="1">
          <mxGeometry x="10" y="90" width="250" height="164" as="geometry" />
        </mxCell>
        <mxCell id="4ZPrEF91bSEPj0tcrlBE-26" value="+ is complete" style="text;strokeColor=none;fillColor=none;align=left;verticalAlign=top;spacingLeft=4;spacingRight=4;overflow=hidden;rotatable=0;points=[[0,0.5],[1,0.5]];portConstraint=eastwest;" vertex="1" parent="4ZPrEF91bSEPj0tcrlBE-25">
          <mxGeometry y="26" width="250" height="104" as="geometry" />
        </mxCell>
        <mxCell id="4ZPrEF91bSEPj0tcrlBE-27" value="" style="line;strokeWidth=1;fillColor=none;align=left;verticalAlign=middle;spacingTop=-1;spacingLeft=3;spacingRight=3;rotatable=0;labelPosition=right;points=[];portConstraint=eastwest;" vertex="1" parent="4ZPrEF91bSEPj0tcrlBE-25">
          <mxGeometry y="130" width="250" height="8" as="geometry" />
        </mxCell>
        <mxCell id="4ZPrEF91bSEPj0tcrlBE-28" value="+ method(type): type" style="text;strokeColor=none;fillColor=none;align=left;verticalAlign=top;spacingLeft=4;spacingRight=4;overflow=hidden;rotatable=0;points=[[0,0.5],[1,0.5]];portConstraint=eastwest;" vertex="1" parent="4ZPrEF91bSEPj0tcrlBE-25">
          <mxGeometry y="138" width="250" height="26" as="geometry" />
        </mxCell>
        <mxCell id="4ZPrEF91bSEPj0tcrlBE-29" value="My inventory/item (extends ingredient)" style="swimlane;fontStyle=1;align=center;verticalAlign=top;childLayout=stackLayout;horizontal=1;startSize=26;horizontalStack=0;resizeParent=1;resizeParentMax=0;resizeLast=0;collapsible=1;marginBottom=0;" vertex="1" parent="1">
          <mxGeometry x="-510" y="482" width="250" height="154" as="geometry" />
        </mxCell>
        <mxCell id="4ZPrEF91bSEPj0tcrlBE-30" value="+ qty&#xa;+ date added&#xa;+ in what recipes...&#xa;+ last used in?" style="text;strokeColor=none;fillColor=none;align=left;verticalAlign=top;spacingLeft=4;spacingRight=4;overflow=hidden;rotatable=0;points=[[0,0.5],[1,0.5]];portConstraint=eastwest;" vertex="1" parent="4ZPrEF91bSEPj0tcrlBE-29">
          <mxGeometry y="26" width="250" height="94" as="geometry" />
        </mxCell>
        <mxCell id="4ZPrEF91bSEPj0tcrlBE-31" value="" style="line;strokeWidth=1;fillColor=none;align=left;verticalAlign=middle;spacingTop=-1;spacingLeft=3;spacingRight=3;rotatable=0;labelPosition=right;points=[];portConstraint=eastwest;" vertex="1" parent="4ZPrEF91bSEPj0tcrlBE-29">
          <mxGeometry y="120" width="250" height="8" as="geometry" />
        </mxCell>
        <mxCell id="4ZPrEF91bSEPj0tcrlBE-32" value="+ crud" style="text;strokeColor=none;fillColor=none;align=left;verticalAlign=top;spacingLeft=4;spacingRight=4;overflow=hidden;rotatable=0;points=[[0,0.5],[1,0.5]];portConstraint=eastwest;" vertex="1" parent="4ZPrEF91bSEPj0tcrlBE-29">
          <mxGeometry y="128" width="250" height="26" as="geometry" />
        </mxCell>
        <mxCell id="4ZPrEF91bSEPj0tcrlBE-33" value="Custom Recipe (ext Recipe)" style="swimlane;fontStyle=1;align=center;verticalAlign=top;childLayout=stackLayout;horizontal=1;startSize=26;horizontalStack=0;resizeParent=1;resizeParentMax=0;resizeLast=0;collapsible=1;marginBottom=0;" vertex="1" parent="1">
          <mxGeometry x="20" y="-30" width="250" height="80" as="geometry" />
        </mxCell>
        <mxCell id="4ZPrEF91bSEPj0tcrlBE-35" value="" style="line;strokeWidth=1;fillColor=none;align=left;verticalAlign=middle;spacingTop=-1;spacingLeft=3;spacingRight=3;rotatable=0;labelPosition=right;points=[];portConstraint=eastwest;" vertex="1" parent="4ZPrEF91bSEPj0tcrlBE-33">
          <mxGeometry y="26" width="250" height="8" as="geometry" />
        </mxCell>
        <mxCell id="4ZPrEF91bSEPj0tcrlBE-36" value="+ edit&#xa;+ delete" style="text;strokeColor=none;fillColor=none;align=left;verticalAlign=top;spacingLeft=4;spacingRight=4;overflow=hidden;rotatable=0;points=[[0,0.5],[1,0.5]];portConstraint=eastwest;" vertex="1" parent="4ZPrEF91bSEPj0tcrlBE-33">
          <mxGeometry y="34" width="250" height="46" as="geometry" />
        </mxCell>
        <mxCell id="4ZPrEF91bSEPj0tcrlBE-37" value="My Schedule/Meal Plan Day" style="swimlane;fontStyle=1;align=center;verticalAlign=top;childLayout=stackLayout;horizontal=1;startSize=26;horizontalStack=0;resizeParent=1;resizeParentMax=0;resizeLast=0;collapsible=1;marginBottom=0;" vertex="1" parent="1">
          <mxGeometry x="-890" y="108" width="250" height="86" as="geometry" />
        </mxCell>
        <mxCell id="4ZPrEF91bSEPj0tcrlBE-38" value="+ meals enum (lunch, dinner, breakfast, etc.)" style="text;strokeColor=none;fillColor=none;align=left;verticalAlign=top;spacingLeft=4;spacingRight=4;overflow=hidden;rotatable=0;points=[[0,0.5],[1,0.5]];portConstraint=eastwest;" vertex="1" parent="4ZPrEF91bSEPj0tcrlBE-37">
          <mxGeometry y="26" width="250" height="26" as="geometry" />
        </mxCell>
        <mxCell id="4ZPrEF91bSEPj0tcrlBE-39" value="" style="line;strokeWidth=1;fillColor=none;align=left;verticalAlign=middle;spacingTop=-1;spacingLeft=3;spacingRight=3;rotatable=0;labelPosition=right;points=[];portConstraint=eastwest;" vertex="1" parent="4ZPrEF91bSEPj0tcrlBE-37">
          <mxGeometry y="52" width="250" height="8" as="geometry" />
        </mxCell>
        <mxCell id="4ZPrEF91bSEPj0tcrlBE-40" value="+ method(type): type" style="text;strokeColor=none;fillColor=none;align=left;verticalAlign=top;spacingLeft=4;spacingRight=4;overflow=hidden;rotatable=0;points=[[0,0.5],[1,0.5]];portConstraint=eastwest;" vertex="1" parent="4ZPrEF91bSEPj0tcrlBE-37">
          <mxGeometry y="60" width="250" height="26" as="geometry" />
        </mxCell>
        <mxCell id="4ZPrEF91bSEPj0tcrlBE-41" value="Meal" style="swimlane;fontStyle=1;align=center;verticalAlign=top;childLayout=stackLayout;horizontal=1;startSize=26;horizontalStack=0;resizeParent=1;resizeParentMax=0;resizeLast=0;collapsible=1;marginBottom=0;" vertex="1" parent="1">
          <mxGeometry x="-600" y="168" width="250" height="104" as="geometry" />
        </mxCell>
        <mxCell id="4ZPrEF91bSEPj0tcrlBE-42" value="+ meal type (lunch, dinner, etc)&#xa;+ recipe" style="text;strokeColor=none;fillColor=none;align=left;verticalAlign=top;spacingLeft=4;spacingRight=4;overflow=hidden;rotatable=0;points=[[0,0.5],[1,0.5]];portConstraint=eastwest;" vertex="1" parent="4ZPrEF91bSEPj0tcrlBE-41">
          <mxGeometry y="26" width="250" height="44" as="geometry" />
        </mxCell>
        <mxCell id="4ZPrEF91bSEPj0tcrlBE-43" value="" style="line;strokeWidth=1;fillColor=none;align=left;verticalAlign=middle;spacingTop=-1;spacingLeft=3;spacingRight=3;rotatable=0;labelPosition=right;points=[];portConstraint=eastwest;" vertex="1" parent="4ZPrEF91bSEPj0tcrlBE-41">
          <mxGeometry y="70" width="250" height="8" as="geometry" />
        </mxCell>
        <mxCell id="4ZPrEF91bSEPj0tcrlBE-44" value="+ method(type): type" style="text;strokeColor=none;fillColor=none;align=left;verticalAlign=top;spacingLeft=4;spacingRight=4;overflow=hidden;rotatable=0;points=[[0,0.5],[1,0.5]];portConstraint=eastwest;" vertex="1" parent="4ZPrEF91bSEPj0tcrlBE-41">
          <mxGeometry y="78" width="250" height="26" as="geometry" />
        </mxCell>
      </root>
    </mxGraphModel>
  </diagram>
</mxfile>
